<svg width="200" height="200" viewBox="0 0 200 200" fill="none" xmlns="http://www.w3.org/2000/svg">
  <rect x="20" y="23" width="161" height="155" fill="#3A7637" />
  <path
    d="M122.198 80.5L122.34 81.0205L122.867 82.957H122.868C122.99 83.4859 123.122 84.8197 123.223 86.5947C123.322 88.352 123.389 90.4983 123.389 92.6221V100.944H142.944V159.5H123.5V139.944H83.3887V159.5H63.0557V132.178C63.0557 124.58 63.1217 117.428 63.2217 112.031C63.2716 109.333 63.3303 107.076 63.3926 105.422C63.4238 104.595 63.4559 103.921 63.4883 103.42C63.5214 102.908 63.5529 102.617 63.5752 102.517C63.7059 102.062 63.8074 101.824 63.9707 101.654C64.1283 101.491 64.4049 101.332 65.0273 101.213C66.3012 100.969 68.6603 100.944 73.3115 100.944H83.5V92.6221C83.5 90.5067 83.6241 88.3652 83.7529 86.6035C83.8802 84.8627 84.0161 83.45 84.0332 82.8584V82.835L84 80.9912L83.9912 80.501L83.501 80.5H122.198ZM83.3887 40.5V80.499L43.5 80.3896V40.5H83.3887ZM123.5 40.5H162.5V80.3887H123.5V40.5Z"
    fill="#2C2C2C" stroke="black" />
</svg>